<?xml version="1.0" encoding="utf-8"?>
<?xml-stylesheet type="text/xsl" href="rss1.xsl"?>
<rss version="2.0" xmlns:atom="http://www.w3.org/2005/Atom" xmlns:content="http://purl.org/rss/1.0/modules/content/" xmlns:dc="http://purl.org/dc/elements/1.1/" xmlns:media="http://search.yahoo.com/mrss/">
<channel>
 <title>Getty</title>
 <link>http://www.gettyimg.com/</link>
 <atom:link href="http://www.gettyimg.com/" rel="self" type="application/rss+xml" />

 
                <item>
                <title><![CDATA[【Documentaries】HDTV - Laura Pausini - Piacere Di Conoscerti (WITH SUBTITLES) [2022] [5.1 ch - 1080p mkv]]]></title>
                <link><![CDATA[https://sharemania.us/threads/laura-pausini-piacere-di-conoscerti-with-subtitles-2022-5-1-ch-1080p-mkv.230416/]]></link>
                <description><![CDATA[<article>
<blockquote class="messageText SelectQuoteContainer ugc baseHtml">
<div style="text-align: center"><img src="https://images-na.ssl-images-amazon.com/images/S/pv-target-images/8e7ed9fd1447c6f1f6b304d5f3ce840996e9bf80cec2b7a893b25655967b5baf._RI_V_TTW_.jpg" class="bbCodeImage LbImage" alt="[​IMG]" data-url="https://images-na.ssl-images-amazon.com/images/S/pv-target-images/8e7ed9fd1447c6f1f6b304d5f3ce840996e9bf80cec2b7a893b25655967b5baf._RI_V_TTW_.jpg" style=""><br>
<b>Subtitles:</b><br>
Portuguese, English, Spanish, German, French, Italian<br>
​</div>
<div class="ToggleTriggerAnchor bbCodeSpoilerContainer">
<button type="button" class="button bbCodeSpoilerButton ToggleTrigger Tooltip JsOnly" data-target="> .SpoilerTarget"><span>Spoiler: <span class="SpoilerTitle">MEDIA INFO</span></span></button>
<div class="SpoilerTarget bbCodeSpoilerText">Name : C:\Users\maico\Videos\LAURA PAUSINI\Piacere Di Conoscerti.mkv<br>
Format : Matroska<br>
Format version : Version 4<br>
File size : 1.56 GiB<br>
Duration : 1 h 21 min<br>
Overall bit rate mode : Variable<br>
Overall bit rate : 2 737 kb/s<br>
Writing application : Lavf59.34.102<br>
Writing library : Lavf59.34.102<br>
ErrorDetectionType : Per level 1<br>
<br>
Video<br>
ID : 1<br>
Format : AVC<br>
Format/Info : Advanced Video Codec<br>
Format profile : High<br>
Format level : 4<br>
Format settings, CABAC : Yes<br>
Format settings, Referenc : 4 frames<br>
Codec ID : V_MPEG4/ISO/AVC<br>
Duration : 1 h 21 min<br>
Bit rate : 2 407 kb/s<br>
Width : 1 920 pixels<br>
Height : 872 pixels<br>
Display aspect ratio : 2.2:1<br>
Frame rate mode : Constant<br>
Frame rate : 25.000 FPS<br>
Color space : YUV<br>
Chroma subsampling : 4:2:0<br>
Bit depth : 8 bits<br>
Scan type : Progressive<br>
Bits/(Pixel*Frame) : 0.058<br>
Stream size : 1.37 GiB (88%)<br>
Writing library : x264 core 164 r3101 b093bbe<br>
Encoding settings : cabac=1 / ref=3 / deblock=1:0:0 / analyse=0x3:0x113 / me=hex / subme=7 / psy=1 / psy_rd=1.00:0.00 / mixed_ref=1 / me_range=16 / chroma_me=1 / trellis=1 / 8x8dct=1 / cqm=0 / deadzone=21,11 / fast_pskip=1 / chroma_qp_offset=-2 / threads=9 / lookahead_threads=1 / sliced_threads=0 / nr=0 / decimate=1 / interlaced=0 / bluray_compat=0 / constrained_intra=0 / bframes=3 / b_pyramid=2 / b_adapt=1 / b_bias=0 / direct=1 / weightb=1 / open_gop=0 / weightp=2 / keyint=250 / keyint_min=25 / scenecut=40 / intra_refresh=0 / rc_lookahead=40 / rc=crf / mbtree=1 / crf=23.0 / qcomp=0.60 / qpmin=0 / qpmax=69 / qpstep=4 / ip_ratio=1.40 / aq=1:1.00<br>
Default : Yes<br>
Forced : No<br>
Color range : Limited<br>
Color primaries : BT.709<br>
Transfer characteristics : BT.709<br>
Matrix coefficients : BT.709<br>
VENDOR_ID : [0][0][0][0]<br>
<br>
Audio<br>
ID : 2<br>
Format : Vorbis<br>
Format settings, Floor : 1 / 16898<br>
Codec ID : A_VORBIS<br>
Duration : 1 h 21 min<br>
Bit rate mode : Variable<br>
Bit rate : 276 kb/s<br>
Channel(s) : 6 channels<br>
Sampling rate : 48.0 kHz<br>
Compression mode : Lossy<br>
Delay relative to video : -3 ms<br>
Stream size : 161 MiB (10%)<br>
Writing application : Lavc59.54.100<br>
Writing library : libVorbis (Reducing Environment) (20200704 (Reducing Environment))<br>
Default : Yes<br>
Forced : No<br>
VENDOR_ID : [0][0][0][0]<br>
<br>
Text #1<br>
ID : 3<br>
Format : UTF-8<br>
Codec ID : S_TEXT/UTF8<br>
Duration : 1 h 21 min<br>
Language : Portuguese<br>
Default : Yes<br>
Forced : No<br>
<br>
Text #2<br>
ID : 4<br>
Format : UTF-8<br>
Codec ID : S_TEXT/UTF8<br>
Duration : 1 h 19 min<br>
Language : English<br>
Default : No<br>
Forced : No<br>
<br>
Text #3<br>
ID : 5<br>
Format : UTF-8<br>
Codec ID : S_TEXT/UTF8<br>
Duration : 1 h 21 min<br>
Language : Spanish<br>
Default : No<br>
Forced : No<br>
<br>
Text #4<br>
ID : 6<br>
Format : UTF-8<br>
Codec ID : S_TEXT/UTF8<br>
Duration : 1 h 21 min<br>
Language : French<br>
Default : No<br>
Forced : No<br>
<br>
Text #5<br>
ID : 7<br>
Format : UTF-8<br>
Codec ID : S_TEXT/UTF8<br>
Duration : 1 h 21 min<br>
Language : German<br>
Default : No<br>
Forced : No<br>
<br>
Text #6<br>
ID : 8<br>
Format : UTF-8<br>
Codec ID : S_TEXT/UTF8<br>
Duration : 1 h 18 min<br>
Language : Italian<br>
Default : No<br>
Forced : No</div>
</div><div style="text-align: center">
<div class="bbCodeBlock bbCodeVfcHH HiddenContent">
<div class="attribution type">Hidden Content:</div>
<blockquote>You must reply before you can see the hidden data contained here.</blockquote>
</div></div>
<div class="messageTextEndMarker">&nbsp;</div>
</blockquote>
</article>]]></description>
                <author><![CDATA[msc93]]></author>
                </item>

                </channel></rss>